<svg width="100%" height="100%" id="svg" viewBox="0 0 1440 590" xmlns="http://www.w3.org/2000/svg" class="transition duration-300 ease-in-out delay-150"><defs><linearGradient id="gradient" x1="40%" y1="1%" x2="60%" y2="99%"><stop offset="5%" stop-color="#0693e3"></stop><stop offset="95%" stop-color="#8ED1FC"></stop></linearGradient></defs><path d="M 0,600 L 0,0 C 62.50202503681885,61.53626656848306 125.0040500736377,123.07253313696611 182,160 C 238.9959499263623,196.92746686303389 290.48582474226805,209.24613402061857 357,187 C 423.51417525773195,164.75386597938143 505.0526509572901,107.94293078055965 558,107 C 610.9473490427099,106.05706921944035 635.3035714285716,160.98214285714283 699,186 C 762.6964285714284,211.01785714285717 865.7330633284242,206.12849779086895 927,190 C 988.2669366715758,173.87150220913105 1007.7641752577317,146.50386597938146 1058,138 C 1108.2358247422683,129.49613402061854 1189.210235640648,139.85603829160527 1258,120 C 1326.789764359352,100.14396170839471 1383.394882179676,50.071980854197356 1440,0 L 1440,600 L 0,600 Z" stroke="none" stroke-width="0" fill="url(#gradient)" fill-opacity="0.53" class="transition-all duration-300 ease-in-out delay-150 path-0"></path><defs><linearGradient id="gradient" x1="40%" y1="1%" x2="60%" y2="99%"><stop offset="5%" stop-color="#0693e3"></stop><stop offset="95%" stop-color="#8ED1FC"></stop></linearGradient></defs><path d="M 0,600 L 0,0 C 44.85106774668631,184.49245213549335 89.70213549337262,368.9849042709867 148,403 C 206.29786450662738,437.0150957290133 278.0425257731958,320.55283505154637 347,297 C 415.9574742268042,273.44716494845363 482.1277614138439,342.80375552282766 544,344 C 605.8722385861561,345.19624447717234 663.4464285714286,278.23214285714283 725,292 C 786.5535714285714,305.76785714285717 852.0865243004419,400.2676730486009 906,396 C 959.9134756995581,391.7323269513991 1002.2074742268039,288.6971649484536 1062,301 C 1121.792525773196,313.3028350515464 1199.0835787923418,440.9436671575847 1265,410 C 1330.9164212076582,379.0563328424153 1385.4582106038292,189.52816642120766 1440,0 L 1440,600 L 0,600 Z" stroke="none" stroke-width="0" fill="url(#gradient)" fill-opacity="1" class="transition-all duration-300 ease-in-out delay-150 path-1"></path></svg>